<mxfile host="65bd71144e">
    <diagram id="wJKceAkCKG9Ak6i-0y6s" name="Page-1">
        <mxGraphModel dx="2023" dy="565" grid="1" gridSize="10" guides="1" tooltips="1" connect="1" arrows="1" fold="1" page="1" pageScale="1" pageWidth="827" pageHeight="1169" math="0" shadow="0">
            <root>
                <mxCell id="0"/>
                <mxCell id="1" parent="0"/>
                <mxCell id="2" style="edgeStyle=none;html=1;endArrow=none;endFill=0;exitX=0;exitY=0.5;exitDx=0;exitDy=0;entryX=0.5;entryY=0;entryDx=0;entryDy=0;fontSize=15;" parent="1" source="3" target="41" edge="1">
                    <mxGeometry relative="1" as="geometry">
                        <mxPoint x="180" y="740" as="targetPoint"/>
                        <Array as="points">
                            <mxPoint x="240" y="703"/>
                        </Array>
                    </mxGeometry>
                </mxCell>
                <mxCell id="3" value="Prodotto" style="swimlane;childLayout=stackLayout;horizontal=1;startSize=35;horizontalStack=0;rounded=1;fontSize=15;fontStyle=0;strokeWidth=2;resizeParent=0;resizeLast=1;shadow=0;dashed=0;align=center;arcSize=15;fillColor=#1ba1e2;fontColor=#ffffff;strokeColor=#006EAF;" parent="1" vertex="1">
                    <mxGeometry x="313.88" y="685" width="170" height="35" as="geometry"/>
                </mxCell>
                <mxCell id="4" value="Categoria" style="swimlane;childLayout=stackLayout;horizontal=1;startSize=45;horizontalStack=0;rounded=1;fontSize=15;fontStyle=0;strokeWidth=2;resizeParent=0;resizeLast=1;shadow=0;dashed=0;align=center;fillColor=#1ba1e2;fontColor=#ffffff;strokeColor=#006EAF;" parent="1" vertex="1">
                    <mxGeometry x="720" y="627.5" width="160" height="45" as="geometry"/>
                </mxCell>
                <mxCell id="5" style="edgeStyle=none;html=1;exitX=0;exitY=0.5;exitDx=0;exitDy=0;endArrow=none;endFill=0;entryX=1;entryY=0.5;entryDx=0;entryDy=0;fontSize=15;" parent="1" source="7" target="3" edge="1">
                    <mxGeometry relative="1" as="geometry">
                        <mxPoint x="490" y="650" as="targetPoint"/>
                        <Array as="points">
                            <mxPoint x="540" y="650"/>
                            <mxPoint x="540" y="703"/>
                        </Array>
                    </mxGeometry>
                </mxCell>
                <mxCell id="6" style="edgeStyle=none;html=1;exitX=1;exitY=0.5;exitDx=0;exitDy=0;endArrow=none;endFill=0;entryX=0;entryY=0.5;entryDx=0;entryDy=0;fontSize=15;" parent="1" source="7" target="4" edge="1">
                    <mxGeometry relative="1" as="geometry">
                        <mxPoint x="690" y="650" as="targetPoint"/>
                    </mxGeometry>
                </mxCell>
                <mxCell id="7" value="Appartiene" style="shape=rhombus;perimeter=rhombusPerimeter;whiteSpace=wrap;html=1;align=center;fontSize=15;" parent="1" vertex="1">
                    <mxGeometry x="565" y="615" width="90" height="70" as="geometry"/>
                </mxCell>
                <mxCell id="8" value="Variazione" style="swimlane;childLayout=stackLayout;horizontal=1;startSize=65;horizontalStack=0;rounded=1;fontSize=15;fontStyle=0;strokeWidth=2;resizeParent=0;resizeLast=1;shadow=0;dashed=0;align=center;fillColor=#1ba1e2;fontColor=#ffffff;strokeColor=#006EAF;" parent="1" vertex="1">
                    <mxGeometry x="722.5" y="1005" width="155" height="45" as="geometry"/>
                </mxCell>
                <mxCell id="9" style="edgeStyle=none;html=1;entryX=0.5;entryY=0;entryDx=0;entryDy=0;endArrow=none;endFill=0;fontSize=15;" parent="1" source="11" target="8" edge="1">
                    <mxGeometry relative="1" as="geometry"/>
                </mxCell>
                <mxCell id="10" style="edgeStyle=none;html=1;entryX=0.5;entryY=1;entryDx=0;entryDy=0;endArrow=none;endFill=0;fontSize=15;" parent="1" source="11" target="4" edge="1">
                    <mxGeometry relative="1" as="geometry">
                        <mxPoint x="770" y="710" as="targetPoint"/>
                    </mxGeometry>
                </mxCell>
                <mxCell id="11" value="Appertiene" style="shape=rhombus;perimeter=rhombusPerimeter;whiteSpace=wrap;html=1;align=center;fontSize=15;" parent="1" vertex="1">
                    <mxGeometry x="756.25" y="805" width="87.5" height="70" as="geometry"/>
                </mxCell>
                <mxCell id="12" style="edgeStyle=none;html=1;entryX=0;entryY=0.5;entryDx=0;entryDy=0;endArrow=none;endFill=0;fontSize=15;" parent="1" source="13" target="15" edge="1">
                    <mxGeometry relative="1" as="geometry"/>
                </mxCell>
                <mxCell id="13" value="Opzioni_Variazione" style="swimlane;childLayout=stackLayout;horizontal=1;startSize=75;horizontalStack=0;rounded=1;fontSize=15;fontStyle=0;strokeWidth=2;resizeParent=0;resizeLast=1;shadow=0;dashed=0;align=center;fillColor=#1ba1e2;fontColor=#ffffff;strokeColor=#006EAF;" parent="1" vertex="1">
                    <mxGeometry x="280" y="1005" width="155" height="45" as="geometry"/>
                </mxCell>
                <mxCell id="14" style="edgeStyle=none;html=1;entryX=0;entryY=0.5;entryDx=0;entryDy=0;endArrow=none;endFill=0;fontSize=15;" parent="1" source="15" target="8" edge="1">
                    <mxGeometry relative="1" as="geometry"/>
                </mxCell>
                <mxCell id="15" value="Composto" style="shape=rhombus;perimeter=rhombusPerimeter;whiteSpace=wrap;html=1;align=center;fontSize=15;" parent="1" vertex="1">
                    <mxGeometry x="520" y="987.5" width="130" height="80" as="geometry"/>
                </mxCell>
                <mxCell id="16" value="Dimensione" style="swimlane;childLayout=stackLayout;horizontal=1;startSize=90;horizontalStack=0;rounded=1;fontSize=15;fontStyle=0;strokeWidth=2;resizeParent=0;resizeLast=1;shadow=0;dashed=0;align=center;fillColor=#1ba1e2;fontColor=#ffffff;strokeColor=#006EAF;" parent="1" vertex="1">
                    <mxGeometry x="530" y="815" width="160" height="40" as="geometry"/>
                </mxCell>
                <mxCell id="17" style="edgeStyle=none;html=1;exitX=0.5;exitY=0;exitDx=0;exitDy=0;entryX=0.5;entryY=1;entryDx=0;entryDy=0;endArrow=none;endFill=0;fontSize=15;" parent="1" source="19" target="3" edge="1">
                    <mxGeometry relative="1" as="geometry">
                        <mxPoint x="447.5" y="715" as="targetPoint"/>
                    </mxGeometry>
                </mxCell>
                <mxCell id="18" style="edgeStyle=none;html=1;exitX=1;exitY=0.5;exitDx=0;exitDy=0;entryX=0;entryY=0.5;entryDx=0;entryDy=0;fontSize=15;endArrow=none;endFill=0;" parent="1" source="19" target="16" edge="1">
                    <mxGeometry relative="1" as="geometry"/>
                </mxCell>
                <mxCell id="19" value="Possiede" style="shape=rhombus;perimeter=rhombusPerimeter;whiteSpace=wrap;html=1;align=center;fontSize=15;" parent="1" vertex="1">
                    <mxGeometry x="357.01" y="802.5" width="83.75" height="65" as="geometry"/>
                </mxCell>
                <mxCell id="21" value="(1,1)" style="text;html=1;align=center;verticalAlign=middle;resizable=0;points=[];autosize=1;strokeColor=none;fillColor=none;fontSize=15;" parent="1" vertex="1">
                    <mxGeometry x="485" y="675" width="50" height="30" as="geometry"/>
                </mxCell>
                <mxCell id="22" value="(0, N)" style="text;html=1;align=center;verticalAlign=middle;resizable=0;points=[];autosize=1;strokeColor=none;fillColor=none;fontSize=15;" parent="1" vertex="1">
                    <mxGeometry x="670" y="625" width="60" height="30" as="geometry"/>
                </mxCell>
                <mxCell id="23" value="(0, N)" style="text;html=1;align=center;verticalAlign=middle;resizable=0;points=[];autosize=1;strokeColor=none;fillColor=none;fontSize=15;" parent="1" vertex="1">
                    <mxGeometry x="745" y="667.5" width="60" height="30" as="geometry"/>
                </mxCell>
                <mxCell id="24" value="(1, 1)" style="text;html=1;align=center;verticalAlign=middle;resizable=0;points=[];autosize=1;strokeColor=none;fillColor=none;fontSize=15;" parent="1" vertex="1">
                    <mxGeometry x="750" y="975" width="60" height="30" as="geometry"/>
                </mxCell>
                <mxCell id="25" value="(1,1)" style="text;html=1;strokeColor=none;fillColor=none;align=center;verticalAlign=middle;whiteSpace=wrap;rounded=0;fontSize=15;" parent="1" vertex="1">
                    <mxGeometry x="355.5" y="730" width="41" height="30" as="geometry"/>
                </mxCell>
                <mxCell id="26" value="(1,1)" style="text;html=1;strokeColor=none;fillColor=none;align=center;verticalAlign=middle;whiteSpace=wrap;rounded=0;fontSize=15;" parent="1" vertex="1">
                    <mxGeometry x="474" y="810" width="51" height="20" as="geometry"/>
                </mxCell>
                <mxCell id="27" value="(0, N)" style="text;html=1;align=center;verticalAlign=middle;resizable=0;points=[];autosize=1;strokeColor=none;fillColor=none;fontSize=15;" parent="1" vertex="1">
                    <mxGeometry x="665" y="1000" width="60" height="30" as="geometry"/>
                </mxCell>
                <mxCell id="28" value="(1, 1)" style="text;html=1;align=center;verticalAlign=middle;resizable=0;points=[];autosize=1;strokeColor=none;fillColor=none;fontSize=15;" parent="1" vertex="1">
                    <mxGeometry x="435" y="1000" width="60" height="30" as="geometry"/>
                </mxCell>
                <mxCell id="29" value="(1, N)" style="text;html=1;align=center;verticalAlign=middle;resizable=0;points=[];autosize=1;strokeColor=none;fillColor=none;fontSize=15;" parent="1" vertex="1">
                    <mxGeometry x="255" y="715" width="60" height="30" as="geometry"/>
                </mxCell>
                <mxCell id="30" value="(0,N)" style="text;html=1;strokeColor=none;fillColor=none;align=center;verticalAlign=middle;whiteSpace=wrap;rounded=0;fontSize=15;" parent="1" vertex="1">
                    <mxGeometry x="230" y="995" width="60" height="30" as="geometry"/>
                </mxCell>
                <mxCell id="34" value="Articolo" style="swimlane;childLayout=stackLayout;horizontal=1;startSize=65;horizontalStack=0;rounded=1;fontSize=15;fontStyle=0;strokeWidth=2;resizeParent=0;resizeLast=1;shadow=0;dashed=0;align=center;fillColor=#1ba1e2;fontColor=#ffffff;strokeColor=#006EAF;" parent="1" vertex="1">
                    <mxGeometry x="-55" y="830" width="130" height="45" as="geometry"/>
                </mxCell>
                <mxCell id="35" value="&#10;&#10;" style="align=left;strokeColor=none;fillColor=none;spacingLeft=4;fontSize=15;verticalAlign=top;resizable=0;rotatable=0;part=1;" parent="34" vertex="1">
                    <mxGeometry y="45" width="130" as="geometry"/>
                </mxCell>
                <mxCell id="36" style="edgeStyle=none;html=1;exitX=1;exitY=0.5;exitDx=0;exitDy=0;entryX=0;entryY=0.5;entryDx=0;entryDy=0;endArrow=none;endFill=0;fontSize=15;" parent="1" source="38" target="13" edge="1">
                    <mxGeometry relative="1" as="geometry"/>
                </mxCell>
                <mxCell id="37" style="edgeStyle=none;html=1;exitX=0.5;exitY=0;exitDx=0;exitDy=0;entryX=0.5;entryY=1;entryDx=0;entryDy=0;endArrow=none;endFill=0;fontSize=15;" parent="1" source="38" target="34" edge="1">
                    <mxGeometry relative="1" as="geometry"/>
                </mxCell>
                <mxCell id="38" value="Configurazione" style="rhombus;whiteSpace=wrap;html=1;fontSize=15;" parent="1" vertex="1">
                    <mxGeometry x="-57.5" y="987.5" width="135" height="80" as="geometry"/>
                </mxCell>
                <mxCell id="39" value="(0, N)" style="text;html=1;align=center;verticalAlign=middle;resizable=0;points=[];autosize=1;strokeColor=none;fillColor=none;fontSize=15;" parent="1" vertex="1">
                    <mxGeometry x="5" y="880" width="60" height="30" as="geometry"/>
                </mxCell>
                <mxCell id="40" style="edgeStyle=none;html=1;exitX=0;exitY=0.5;exitDx=0;exitDy=0;entryX=1;entryY=0.5;entryDx=0;entryDy=0;endArrow=none;endFill=0;fontSize=15;" parent="1" source="41" target="34" edge="1">
                    <mxGeometry relative="1" as="geometry">
                        <Array as="points"/>
                    </mxGeometry>
                </mxCell>
                <mxCell id="41" value="Si configura" style="rhombus;whiteSpace=wrap;html=1;fontSize=15;" parent="1" vertex="1">
                    <mxGeometry x="180" y="812.5" width="120" height="80" as="geometry"/>
                </mxCell>
                <mxCell id="42" value="(1, 1)" style="text;html=1;align=center;verticalAlign=middle;resizable=0;points=[];autosize=1;strokeColor=none;fillColor=none;fontSize=15;" parent="1" vertex="1">
                    <mxGeometry x="70" y="815" width="60" height="30" as="geometry"/>
                </mxCell>
            </root>
        </mxGraphModel>
    </diagram>
</mxfile>